<svg xmlns="http://www.w3.org/2000/svg" width="400" height="400" preserveAspectRatio="xMidYMid meet" version="1.0" viewBox="0 0 300 300"><metadata>Created by potrace 1.14, written by Peter Selinger 2001-2017</metadata><g fill="#000" stroke="none"><path d="M79 2943 c0 -5 -3 -17 -5 -28 -3 -11 -6 -207 -8 -435 -3 -296 -7 -429 -17 -465 -7 -28 -13 -115 -14 -197 -1 -123 1 -148 13 -148 12 0 13 -27 9 -174 -3 -95 -9 -196 -13 -223 -4 -34 -1 -60 9 -86 9 -20 14 -47 11 -59 -26 -118 -34 -196 -32 -341 1 -89 5 -174 9 -189 5 -17 3 -30 -3 -34 -7 -5 -5 -11 6 -20 15 -10 16 -23 11 -90 -10 -121 -13 -365 -5 -393 4 -15 13 -24 21 -22 8 2 28 3 44 2 17 -1 37 -2 45 -1 8 0 92 0 185 0 425 -2 1242 -3 1265 -1 14 1 32 1 40 1 8 0 188 0 400 0 212 0 437 0 500 -1 63 0 133 1 155 4 94 12 220 31 225 34 10 9 19 822 9 828 -8 6 -5 253 6 450 3 61 7 226 9 368 3 242 2 259 -15 271 -15 10 -18 22 -14 52 2 21 7 104 10 184 3 80 8 199 10 265 15 359 14 431 -4 442 -21 13 -851 16 -851 3 0 -14 -46 -17 -58 -3 -9 9 -38 11 -115 7 -56 -3 -140 -5 -187 -5 -1084 11 -1621 10 -1614 -1 6 -10 4 -11 -7 0 -15 14 -29 16 -30 5z" transform="translate(0.000000,300.000000) scale(0.100000,-0.100000)"/></g></svg>